<svg width="18" height="14" viewBox="0 0 18 14" fill="none" xmlns="http://www.w3.org/2000/svg">
<path d="M1.54987 0.386108H16.0842C16.9388 0.386108 17.634 1.14016 17.634 2.06702V11.8081C17.634 12.735 16.9388 13.489 16.0842 13.489H1.54987C0.69527 13.489 0 12.735 0 11.8081V2.06702C0 1.14016 0.69527 0.386108 1.54987 0.386108ZM1.75214 1.50671L1.959 1.69352L8.2021 7.3317C8.55843 7.65346 9.07567 7.65346 9.43193 7.3317L15.675 1.69352L15.8819 1.50671H1.75214ZM16.6008 2.31572L11.5141 6.90956L16.6008 10.5812V2.31572ZM1.54987 12.3684H16.0842C16.3338 12.3684 16.5426 12.1754 16.5904 11.9198L10.6856 7.65772L10.0931 8.19284C9.72338 8.52671 9.27016 8.69364 8.81698 8.69364C8.3638 8.69364 7.91062 8.52671 7.54089 8.19284L6.94836 7.65772L1.04358 11.9198C1.09145 12.1754 1.30023 12.3684 1.54987 12.3684ZM1.03324 10.5812L6.11997 6.9096L1.03324 2.31572V10.5812Z" fill="black"/>
</svg>
