<svg width="18" height="13" viewBox="0 0 18 13" fill="none" xmlns="http://www.w3.org/2000/svg">
<path d="M1.54987 0.399902H16.0842C16.9388 0.399902 17.634 1.11862 17.634 2.00204V11.2867C17.634 12.1701 16.9388 12.8889 16.0842 12.8889H1.54987C0.69527 12.8889 0 12.1701 0 11.2867V2.00204C0 1.11862 0.69527 0.399902 1.54987 0.399902ZM1.75214 1.468L1.959 1.64605L8.2021 7.02003C8.55843 7.32671 9.07567 7.32671 9.43193 7.02003L15.675 1.64605L15.8819 1.468H1.75214ZM16.6008 2.23909L11.5141 6.61768L16.6008 10.1172V2.23909ZM1.54987 11.8208H16.0842C16.3338 11.8208 16.5426 11.6368 16.5904 11.3931L10.6856 7.33077L10.0931 7.84082C9.72338 8.15904 9.27016 8.31815 8.81698 8.31815C8.3638 8.31815 7.91062 8.15904 7.54089 7.84082L6.94836 7.33077L1.04358 11.3931C1.09145 11.6368 1.30023 11.8208 1.54987 11.8208ZM1.03324 10.1172L6.11997 6.61771L1.03324 2.23909V10.1172Z" fill="#000842"/>
</svg>
