<svg width="15" height="18" viewBox="0 0 15 18" fill="none" xmlns="http://www.w3.org/2000/svg">
<g clip-path="url(#clip0_24_97)">
<path d="M7.64551 6.70238L9.71951 9.16052L9.72938 9.03176C9.72938 7.74025 8.84383 6.69067 7.75415 6.69067L7.64551 6.70238Z" fill="#ABABAB"/>
<path d="M7.75411 5.12985C9.57133 5.12985 11.0462 6.87787 11.0462 9.03167C11.0462 9.535 10.9606 10.0149 10.8125 10.4558L12.7383 12.7384C13.7325 11.7551 14.516 10.4831 15 9.03167C13.8576 5.60589 11.0495 3.17896 7.75414 3.17896C6.83235 3.17896 5.9501 3.37403 5.13037 3.7252L6.55254 5.40686C6.92451 5.2352 7.32943 5.12985 7.75411 5.12985Z" fill="#ABABAB"/>
<path d="M1.17 3.00351L2.67118 4.78273L2.97077 5.13781C1.88439 6.14448 1.02516 7.48281 0.511597 9.0318C1.65066 12.4576 4.46207 14.8845 7.75415 14.8845C8.7747 14.8845 9.74914 14.6504 10.6413 14.2251L10.9211 14.5568L12.8404 16.8354L13.6799 15.8444L2.00948 2.00854L1.17 3.00351ZM4.81104 7.31502L5.82829 8.52068C5.79866 8.68847 5.77891 8.85622 5.77891 9.0318C5.77891 10.3233 6.66446 11.3729 7.75415 11.3729C7.90229 11.3729 8.04386 11.3495 8.18213 11.3144L9.19937 12.52C8.76152 12.7775 8.27431 12.9336 7.75415 12.9336C5.93693 12.9336 4.46207 11.1856 4.46207 9.0318C4.46207 8.41533 4.59377 7.83785 4.81104 7.31502Z" fill="#ABABAB"/>
</g>
<defs>
<clipPath id="clip0_24_97">
<rect width="14.4884" height="17.1719" fill="white" transform="translate(0.511597 0.835938)"/>
</clipPath>
</defs>
</svg>
