<svg width="15" height="21" viewBox="0 0 15 21" fill="none" xmlns="http://www.w3.org/2000/svg">
<g clip-path="url(#clip0_24_161)">
<path d="M7.64551 7.27092L9.71951 10.0755L9.72938 9.92859C9.72938 8.45506 8.84383 7.25757 7.75415 7.25757L7.64551 7.27092Z" fill="#ABABAB"/>
<path d="M7.75411 5.47681C9.57133 5.47681 11.0462 7.47119 11.0462 9.92853C11.0462 10.5028 10.9606 11.0504 10.8125 11.5534L12.7383 14.1576C13.7325 13.0358 14.516 11.5846 15 9.92853C13.8576 6.01995 11.0495 3.25098 7.75414 3.25098C6.83235 3.25098 5.9501 3.47355 5.13037 3.8742L6.55254 5.79287C6.92451 5.59701 7.32943 5.47681 7.75411 5.47681Z" fill="#ABABAB"/>
<path d="M1.17 3.05071L2.67118 5.08069L2.97077 5.48581C1.88439 6.63435 1.02516 8.16129 0.511597 9.92859C1.65066 13.8372 4.46207 16.6061 7.75415 16.6061C8.7747 16.6061 9.74914 16.339 10.6413 15.8538L10.9211 16.2322L12.8404 18.832L13.6799 17.7013L2.00948 1.91553L1.17 3.05071ZM4.81104 7.96986L5.82829 9.34543C5.79866 9.53687 5.77891 9.72827 5.77891 9.92859C5.77891 11.4021 6.66446 12.5996 7.75415 12.5996C7.90229 12.5996 8.04386 12.5729 8.18213 12.5328L9.19937 13.9084C8.76152 14.2022 8.27431 14.3803 7.75415 14.3803C5.93693 14.3803 4.46207 12.3859 4.46207 9.92859C4.46207 9.22524 4.59377 8.56637 4.81104 7.96986Z" fill="#ABABAB"/>
</g>
<defs>
<clipPath id="clip0_24_161">
<rect width="14.4884" height="19.5919" fill="white" transform="translate(0.511597 0.577881)"/>
</clipPath>
</defs>
</svg>
