<svg width="99" height="35" viewBox="0 0 99 35" fill="none" xmlns="http://www.w3.org/2000/svg">
<rect width="1440" height="900" transform="translate(-46 -27)" fill="white"/>
<path d="M59.508 23C58.428 23 57.6013 22.7267 57.028 22.18C56.4546 21.6333 56.168 20.8533 56.168 19.84C56.168 18.84 56.4546 18.0667 57.028 17.52C57.6013 16.9733 58.428 16.7 59.508 16.7H67.188V16.22C67.188 15.4067 66.788 15 65.988 15H57.508V12.7H66.748C67.9613 12.7 68.8213 12.98 69.328 13.54C69.8346 14.0867 70.088 14.86 70.088 15.86V23H59.508ZM60.028 20.7H67.188V19H60.028C59.7746 19 59.5746 19.08 59.428 19.24C59.2946 19.3867 59.228 19.5867 59.228 19.84C59.228 20.0933 59.2946 20.3 59.428 20.46C59.5746 20.62 59.7746 20.7 60.028 20.7ZM77.6553 23C76.4953 23 75.642 22.7133 75.0953 22.14C74.5486 21.5533 74.2753 20.7867 74.2753 19.84V15H71.2953V12.7H74.2753V9.54H77.1753V12.7H81.4553V15H77.1753V19.48C77.1753 20.2933 77.5753 20.7 78.3753 20.7H82.0153V23H77.6553ZM88.7863 23.1C86.9996 23.1 85.6063 22.66 84.6063 21.78C83.6063 20.8867 83.1063 19.58 83.1063 17.86C83.1063 16.1267 83.6063 14.82 84.6063 13.94C85.6063 13.0467 86.9996 12.6 88.7863 12.6H93.7863C94.9596 12.6 95.8529 12.88 96.4663 13.44C97.0929 13.9867 97.4063 14.7733 97.4063 15.8C97.4063 17.8933 96.1996 18.94 93.7863 18.94H86.2263C86.5063 20.18 87.3596 20.8 88.7863 20.8H96.8863V23.1H88.7863ZM88.7863 14.9C87.4129 14.9 86.5663 15.48 86.2463 16.64H93.6463C93.9129 16.64 94.1196 16.56 94.2663 16.4C94.4263 16.24 94.5063 16.02 94.5063 15.74C94.5063 15.18 94.2196 14.9 93.6463 14.9H88.7863Z" fill="black"/>
<path d="M4.39219 23V8.7H20.0722V11.3H7.59219V14.46H18.9122V17.06H7.59219V20.4H20.0722V23H4.39219ZM21.9633 23V8.7H24.8633V23H21.9633ZM32.3409 23.1C30.5543 23.1 29.1609 22.66 28.1609 21.78C27.1609 20.8867 26.6609 19.58 26.6609 17.86C26.6609 16.1267 27.1609 14.82 28.1609 13.94C29.1609 13.0467 30.5543 12.6 32.3409 12.6H37.3409C38.5143 12.6 39.4076 12.88 40.0209 13.44C40.6476 13.9867 40.9609 14.7733 40.9609 15.8C40.9609 17.8933 39.7543 18.94 37.3409 18.94H29.7809C30.0609 20.18 30.9143 20.8 32.3409 20.8H40.4409V23.1H32.3409ZM32.3409 14.9C30.9676 14.9 30.1209 15.48 29.8009 16.64H37.2009C37.4676 16.64 37.6743 16.56 37.8209 16.4C37.9809 16.24 38.0609 16.02 38.0609 15.74C38.0609 15.18 37.7743 14.9 37.2009 14.9H32.3409ZM46.0088 23L41.6688 12.7H44.7088L48.0688 20.68H49.0688L52.4288 12.7H55.4688L51.1288 23H46.0088Z" fill="#6DB6DF"/>
</svg>
