<svg width="18" height="25" viewBox="0 0 18 25" fill="none" xmlns="http://www.w3.org/2000/svg">
<g clip-path="url(#clip0_24_154)">
<path d="M13.4568 11.0975V7.33C13.4643 5.62529 12.9607 3.98615 12.0619 2.79084C11.1929 1.62075 10.0553 0.980225 8.85061 0.980225C8.83196 0.980225 8.80958 0.980225 8.79093 0.980225C6.22117 0.985268 4.13253 3.82981 4.13253 7.33V11.0975C3.16281 11.2538 2.45416 12.3533 2.45416 13.6848V22.1478C2.45416 23.5852 3.30454 24.7704 4.3675 24.7704H13.2256C14.2885 24.7704 15.1389 23.5852 15.1389 22.1478V13.6848C15.1352 12.3584 14.4265 11.2538 13.4568 11.0975ZM4.87474 7.33H4.87847C4.87847 4.38459 6.63516 1.9738 8.79466 1.9738H8.79839C9.82406 1.96875 10.8087 2.51849 11.536 3.49693C12.2931 4.51068 12.7146 5.8926 12.7071 7.33V11.1025H11.8866V7.33C11.894 6.18512 11.5584 5.08564 10.9579 4.27868C10.391 3.51206 9.62266 3.07832 8.82077 3.07832H8.79839C7.08273 3.07832 5.69528 4.98477 5.69528 7.32495V11.1025H4.87474V7.33V7.33ZM11.1444 7.33V11.1025H6.44495V7.33C6.44495 5.5446 7.49673 4.09207 8.80212 4.09207H8.8245C9.42871 4.09207 10.0105 4.4199 10.4395 4.9999C10.8945 5.61521 11.1518 6.45747 11.1444 7.33ZM14.4265 22.1629C14.4265 23.0456 13.8969 23.7617 13.2442 23.7617H4.38242C3.72972 23.7617 3.2001 23.0456 3.2001 22.1629V13.71C3.2001 12.8274 3.72972 12.1112 4.38242 12.1112H13.2442C13.8969 12.1112 14.4265 12.8274 14.4265 13.71V22.1629Z" fill="#000842"/>
<path d="M10.0851 17.6237C9.92104 16.842 9.39515 16.3074 8.79467 16.3074C8.05246 16.3074 7.44824 17.1194 7.44824 18.1281C7.44824 18.9401 7.84359 19.6512 8.4217 19.8731V21.2853C8.4217 21.5627 8.58953 21.7897 8.79467 21.7897C8.9998 21.7897 9.16764 21.5627 9.16764 21.2853V19.8731C9.88001 19.5957 10.294 18.587 10.0851 17.6237ZM8.79467 18.935C8.46272 18.935 8.19418 18.5719 8.19418 18.123C8.19418 17.6742 8.46272 17.311 8.79467 17.311C9.12661 17.311 9.39515 17.6742 9.39515 18.123C9.39515 18.5719 9.12661 18.935 8.79467 18.935Z" fill="#000842"/>
</g>
<defs>
<clipPath id="clip0_24_154">
<rect width="17.593" height="23.7902" fill="white" transform="translate(0 0.980225)"/>
</clipPath>
</defs>
</svg>
