<svg width="18" height="22" viewBox="0 0 18 22" fill="none" xmlns="http://www.w3.org/2000/svg">
<g clip-path="url(#clip0_24_90)">
<path d="M13.4568 9.34386V6.04174C13.4643 4.54761 12.9607 3.11094 12.0619 2.06328C11.1929 1.03772 10.0553 0.476318 8.85061 0.476318C8.83196 0.476318 8.80958 0.476318 8.79093 0.476318C6.22117 0.480739 4.13253 2.97391 4.13253 6.04174V9.34386C3.16281 9.4809 2.45416 10.4446 2.45416 11.6116V19.0292C2.45416 20.289 3.30454 21.3279 4.3675 21.3279H13.2256C14.2885 21.3279 15.1389 20.289 15.1389 19.0292V11.6116C15.1352 10.449 14.4265 9.4809 13.4568 9.34386ZM4.87474 6.04174H4.87847C4.87847 3.46016 6.63516 1.34716 8.79466 1.34716H8.79839C9.82406 1.34274 10.8087 1.82457 11.536 2.68215C12.2931 3.57068 12.7146 4.7819 12.7071 6.04174V9.34828H11.8866V6.04174C11.894 5.03828 11.5584 4.07461 10.9579 3.36733C10.391 2.69541 9.62266 2.31525 8.82077 2.31525H8.79839C7.08273 2.31525 5.69528 3.9862 5.69528 6.03732V9.34828H4.87474V6.04174ZM11.1444 6.04174V9.34828H6.44495V6.04174C6.44495 4.47688 7.49673 3.20377 8.80212 3.20377H8.8245C9.42871 3.20377 10.0105 3.49111 10.4395 3.99946C10.8945 4.53877 11.1518 5.27699 11.1444 6.04174ZM14.4265 19.0425C14.4265 19.816 13.8969 20.4438 13.2442 20.4438H4.38242C3.72972 20.4438 3.2001 19.816 3.2001 19.0425V11.6337C3.2001 10.8601 3.72972 10.2324 4.38242 10.2324H13.2442C13.8969 10.2324 14.4265 10.8601 14.4265 11.6337V19.0425Z" fill="black"/>
<path d="M10.0851 15.0639C9.92104 14.3787 9.39515 13.9102 8.79467 13.9102C8.05246 13.9102 7.44824 14.6219 7.44824 15.506C7.44824 16.2177 7.84359 16.841 8.4217 17.0355V18.2732C8.4217 18.5163 8.58953 18.7153 8.79467 18.7153C8.9998 18.7153 9.16764 18.5163 9.16764 18.2732V17.0355C9.88001 16.7923 10.294 15.9082 10.0851 15.0639ZM8.79467 16.2132C8.46272 16.2132 8.19418 15.895 8.19418 15.5015C8.19418 15.1081 8.46272 14.7898 8.79467 14.7898C9.12661 14.7898 9.39515 15.1081 9.39515 15.5015C9.39515 15.895 9.12661 16.2132 8.79467 16.2132Z" fill="black"/>
</g>
<defs>
<clipPath id="clip0_24_90">
<rect width="17.593" height="20.8515" fill="white" transform="translate(0 0.476318)"/>
</clipPath>
</defs>
</svg>
