<svg width="19" height="21" viewBox="0 0 19 21" fill="none" xmlns="http://www.w3.org/2000/svg">
<rect width="1440" height="900" transform="translate(-537 -470)" fill="white"/>
<g clip-path="url(#clip0_20_0)">
<path d="M8.89342 9.78249L10.8975 11.7866L10.9071 11.6816C10.9071 10.6287 10.0513 9.77295 8.99839 9.77295L8.89342 9.78249Z" fill="#ABABAB"/>
<path d="M8.99841 8.50069C10.7544 8.50069 12.1795 9.92583 12.1795 11.6818C12.1795 12.0922 12.0968 12.4834 11.9537 12.8429L13.8146 14.7038C14.7753 13.9022 15.5324 12.8652 16 11.6818C14.8962 8.88881 12.1827 6.91016 8.99844 6.91016C8.10773 6.91016 7.25521 7.0692 6.46312 7.3555L7.83735 8.72654C8.19678 8.58658 8.58805 8.50069 8.99841 8.50069Z" fill="#ABABAB"/>
<path d="M2.63621 6.76699L4.08679 8.21757L4.37628 8.50706C3.32652 9.32778 2.49625 10.4189 2 11.6818C3.10067 14.4748 5.81731 16.4534 8.99842 16.4534C9.98457 16.4534 10.9262 16.2626 11.7882 15.9158L12.0587 16.1862L13.9132 18.044L14.7244 17.236L3.44739 5.95581L2.63621 6.76699ZM6.15452 10.2821L7.13748 11.2651C7.10885 11.4019 7.08976 11.5386 7.08976 11.6818C7.08976 12.7347 7.94547 13.5904 8.99842 13.5904C9.14157 13.5904 9.27837 13.5714 9.41197 13.5427L10.3949 14.5257C9.97183 14.7356 9.50105 14.8629 8.99842 14.8629C7.24245 14.8629 5.81731 13.4377 5.81731 11.6818C5.81731 11.1792 5.94457 10.7084 6.15452 10.2821Z" fill="#ABABAB"/>
</g>
<defs>
<clipPath id="clip0_20_0">
<rect width="14" height="14" fill="white" transform="translate(2 5)"/>
</clipPath>
</defs>
</svg>
